<svg xmlns="http://www.w3.org/2000/svg"  viewBox="0 0 32 32" width="32px" height="32px"><path d="M 16 3 C 8.8321388 3 3 8.832144 3 16 C 3 23.167856 8.8321388 29 16 29 C 23.167861 29 29 23.167856 29 16 C 29 8.832144 23.167861 3 16 3 z M 16 5 C 22.086982 5 27 9.9130223 27 16 C 27 22.086978 22.086982 27 16 27 C 9.9130183 27 5 22.086978 5 16 C 5 9.9130223 9.9130183 5 16 5 z M 15.822266 9 C 14.45725 9 13.289623 9.988467 13.029297 11.314453 C 12.955127 11.690538 12.891325 12.066997 12.835938 12.445312 C 12.802727 12.66688 12.665355 12.803239 12.443359 12.835938 C 12.065681 12.891267 11.689906 12.955249 11.314453 13.029297 C 9.9891902 13.289481 9 14.45725 9 15.822266 L 9 16.123047 C 9 17.515153 9.9891902 18.710519 11.314453 18.970703 C 11.689906 19.044753 12.065681 19.108735 12.443359 19.164062 C 12.665908 19.196842 12.803159 19.334092 12.835938 19.556641 C 12.891267 19.934319 12.955249 20.310094 13.029297 20.685547 C 13.289623 22.011533 14.45725 23 15.822266 23 L 16.177734 23 C 17.54275 23 18.710377 22.011533 18.970703 20.685547 C 19.044753 20.310094 19.108735 19.934319 19.164062 19.556641 L 19.164062 19.554688 C 19.197192 19.333673 19.333674 19.197189 19.554688 19.164062 C 19.933004 19.108673 20.309462 19.044875 20.685547 18.970703 C 22.01081 18.710566 23 17.54275 23 16.177734 L 23 15.876953 C 23 14.484847 22.01081 13.289481 20.685547 13.029297 C 20.310094 12.955247 19.934319 12.891264 19.556641 12.835938 L 19.554688 12.835938 C 19.333673 12.802808 19.197189 12.666327 19.164062 12.445312 L 19.164062 12.443359 C 19.108783 12.065728 19.044751 11.689906 18.970703 11.314453 C 18.710377 9.988467 17.54275 9 16.177734 9 L 15.822266 9 z M 15.822266 11 L 16.177734 11 C 16.586719 11 16.926139 11.283205 17.007812 11.699219 A 1.0001 1.0001 0 0 0 17.007812 11.701172 C 17.075643 12.045087 17.134936 12.388692 17.185547 12.734375 A 1.0001 1.0001 0 0 0 17.185547 12.736328 C 17.342768 13.803779 18.196221 14.657232 19.263672 14.814453 A 1.0001 1.0001 0 0 0 19.265625 14.814453 C 19.611308 14.865063 19.954913 14.924359 20.298828 14.992188 A 1.0001 1.0001 0 0 0 20.300781 14.992188 C 20.717424 15.073909 21 15.385059 21 15.876953 L 21 16.177734 C 21 16.586719 20.717518 16.925997 20.300781 17.007812 A 1.0001 1.0001 0 0 0 20.298828 17.007812 C 19.954913 17.075643 19.611308 17.134936 19.265625 17.185547 A 1.0001 1.0001 0 0 0 19.263672 17.185547 C 18.196221 17.342768 17.342768 18.196221 17.185547 19.263672 A 1.0001 1.0001 0 0 0 17.185547 19.265625 C 17.134937 19.611308 17.07564 19.954913 17.007812 20.298828 A 1.0001 1.0001 0 0 0 17.007812 20.300781 C 16.926232 20.716701 16.586719 21 16.177734 21 L 15.822266 21 C 15.413281 21 15.073862 20.716795 14.992188 20.300781 A 1.0001 1.0001 0 0 0 14.992188 20.298828 C 14.924357 19.954913 14.865064 19.611308 14.814453 19.265625 A 1.0001 1.0001 0 0 0 14.814453 19.263672 C 14.657232 18.196221 13.803779 17.342768 12.736328 17.185547 A 1.0001 1.0001 0 0 0 12.734375 17.185547 C 12.388692 17.134937 12.045087 17.07564 11.701172 17.007812 A 1.0001 1.0001 0 0 0 11.699219 17.007812 C 11.282576 16.92609 11 16.614941 11 16.123047 L 11 15.822266 C 11 15.413281 11.282482 15.074004 11.699219 14.992188 A 1.0001 1.0001 0 0 0 11.701172 14.992188 C 12.045087 14.924357 12.388692 14.865064 12.734375 14.814453 A 1.0001 1.0001 0 0 0 12.736328 14.814453 C 13.803779 14.657232 14.657232 13.803779 14.814453 12.736328 A 1.0001 1.0001 0 0 0 14.814453 12.734375 C 14.865063 12.388692 14.924359 12.045087 14.992188 11.701172 A 1.0001 1.0001 0 0 0 14.992188 11.699219 C 15.073767 11.283299 15.413281 11 15.822266 11 z"/></svg>